<svg fill="#f97316" width="110" height="110" xmlns="http://www.w3.org/2000/svg"><path transform="translate(0, 8)" d="M39.65 0L22.88 16.4H7.55A7.54 7.54 0 000 23.96v61a7.54 7.54 0 007.55 7.56h29.3c11.76 5.55 23.4 5.55 34.96 0h29.6a7.54 7.54 0 007.55-7.56v-61a7.54 7.54 0 00-7.56-7.56H85.64L69.36 0zm14.84 24.19a32.9 32.88 0 0132.9 32.88 32.9 32.88 0 01-32.9 32.87 32.9 32.88 0 01-32.9-32.87 32.9 32.88 0 0132.9-32.88zm-.01 6.35l.01 52.84c13 .19 25.92-9.29 26.1-26.31.2-17.03-13.97-26.47-26.11-26.53z"/></svg>
